<svg width="39" height="38" viewBox="0 0 39 38" fill="none" xmlns="http://www.w3.org/2000/svg">
<path fill-rule="evenodd" clip-rule="evenodd" d="M31.1875 35.6667C32.5965 35.6667 33.9477 35.118 34.944 34.1412C35.9403 33.1645 36.5 31.8397 36.5 30.4584C36.5 29.077 35.9403 27.7523 34.944 26.7755C33.9477 25.7988 32.5965 25.25 31.1875 25.25C29.7785 25.25 28.4273 25.7988 27.431 26.7755C26.4347 27.7523 25.875 29.077 25.875 30.4584C25.875 31.8397 26.4347 33.1645 27.431 34.1412C28.4273 35.118 29.7785 35.6667 31.1875 35.6667ZM31.1875 37.75C33.16 37.75 35.0518 36.9818 36.4466 35.6143C37.8414 34.2469 38.625 32.3922 38.625 30.4584C38.625 28.5245 37.8414 26.6698 36.4466 25.3024C35.0518 23.9349 33.16 23.1667 31.1875 23.1667C29.215 23.1667 27.3232 23.9349 25.9284 25.3024C24.5336 26.6698 23.75 28.5245 23.75 30.4584C23.75 32.3922 24.5336 34.2469 25.9284 35.6143C27.3232 36.9818 29.215 37.75 31.1875 37.75Z" fill="white"/>
<path fill-rule="evenodd" clip-rule="evenodd" d="M31.1875 26.8125C31.4693 26.8125 31.7395 26.9222 31.9388 27.1176C32.1381 27.3129 32.25 27.5779 32.25 27.8542V30.0271L33.0012 30.7635C33.1947 30.96 33.3018 31.2231 33.2994 31.4963C33.297 31.7694 33.1852 32.0306 32.9882 32.2238C32.7913 32.4169 32.5248 32.5265 32.2462 32.5288C31.9676 32.5312 31.6992 32.4262 31.4988 32.2365L30.125 30.8896V27.8542C30.125 27.5779 30.2369 27.3129 30.4362 27.1176C30.6355 26.9222 30.9057 26.8125 31.1875 26.8125ZM8.875 17.9583H6.75V20.0417H8.875V17.9583ZM6.75 15.875C6.18641 15.875 5.64591 16.0945 5.2474 16.4852C4.84888 16.8759 4.625 17.4058 4.625 17.9583V20.0417C4.625 20.5942 4.84888 21.1241 5.2474 21.5148C5.64591 21.9055 6.18641 22.125 6.75 22.125H8.875C9.43859 22.125 9.97909 21.9055 10.3776 21.5148C10.7761 21.1241 11 20.5942 11 20.0417V17.9583C11 17.4058 10.7761 16.8759 10.3776 16.4852C9.97909 16.0945 9.43859 15.875 8.875 15.875H6.75ZM17.375 17.9583H15.25V20.0417H17.375V17.9583ZM15.25 15.875C14.6864 15.875 14.1459 16.0945 13.7474 16.4852C13.3489 16.8759 13.125 17.4058 13.125 17.9583V20.0417C13.125 20.5942 13.3489 21.1241 13.7474 21.5148C14.1459 21.9055 14.6864 22.125 15.25 22.125H17.375C17.9386 22.125 18.4791 21.9055 18.8776 21.5148C19.2761 21.1241 19.5 20.5942 19.5 20.0417V17.9583C19.5 17.4058 19.2761 16.8759 18.8776 16.4852C18.4791 16.0945 17.9386 15.875 17.375 15.875H15.25ZM25.875 17.9583H23.75V20.0417H25.875V17.9583ZM23.75 15.875C23.1864 15.875 22.6459 16.0945 22.2474 16.4852C21.8489 16.8759 21.625 17.4058 21.625 17.9583V20.0417C21.625 20.5942 21.8489 21.1241 22.2474 21.5148C22.6459 21.9055 23.1864 22.125 23.75 22.125H25.875C26.4386 22.125 26.9791 21.9055 27.3776 21.5148C27.7761 21.1241 28 20.5942 28 20.0417V17.9583C28 17.4058 27.7761 16.8759 27.3776 16.4852C26.9791 16.0945 26.4386 15.875 25.875 15.875H23.75ZM8.875 26.2917H6.75V28.375H8.875V26.2917ZM6.75 24.2083C6.18641 24.2083 5.64591 24.4278 5.2474 24.8185C4.84888 25.2092 4.625 25.7391 4.625 26.2917V28.375C4.625 28.9275 4.84888 29.4574 5.2474 29.8481C5.64591 30.2388 6.18641 30.4583 6.75 30.4583H8.875C9.43859 30.4583 9.97909 30.2388 10.3776 29.8481C10.7761 29.4574 11 28.9275 11 28.375V26.2917C11 25.7391 10.7761 25.2092 10.3776 24.8185C9.97909 24.4278 9.43859 24.2083 8.875 24.2083H6.75ZM17.375 26.2917H15.25V28.375H17.375V26.2917ZM15.25 24.2083C14.6864 24.2083 14.1459 24.4278 13.7474 24.8185C13.3489 25.2092 13.125 25.7391 13.125 26.2917V28.375C13.125 28.9275 13.3489 29.4574 13.7474 29.8481C14.1459 30.2388 14.6864 30.4583 15.25 30.4583H17.375C17.9386 30.4583 18.4791 30.2388 18.8776 29.8481C19.2761 29.4574 19.5 28.9275 19.5 28.375V26.2917C19.5 25.7391 19.2761 25.2092 18.8776 24.8185C18.4791 24.4278 17.9386 24.2083 17.375 24.2083H15.25Z" fill="white"/>
<path fill-rule="evenodd" clip-rule="evenodd" d="M2.5 6.5C2.5 6.22373 2.61194 5.95878 2.8112 5.76343C3.01046 5.56808 3.28071 5.45833 3.5625 5.45833H8.875V3.375H3.5625C2.71712 3.375 1.90637 3.70424 1.3086 4.29029C0.710825 4.87634 0.375 5.6712 0.375 6.5V31.5C0.375 32.3288 0.710825 33.1237 1.3086 33.7097C1.90637 34.2958 2.71712 34.625 3.5625 34.625H25.0834C24.6303 33.9887 24.2842 33.2854 24.0581 32.5417H3.5625C3.28071 32.5417 3.01046 32.4319 2.8112 32.2366C2.61194 32.0412 2.5 31.7763 2.5 31.5V6.5ZM30.125 23.2396C30.8297 23.1407 31.5453 23.1407 32.25 23.2396V6.5C32.25 5.6712 31.9142 4.87634 31.3164 4.29029C30.7186 3.70424 29.9079 3.375 29.0625 3.375H25.875V5.45833H29.0625C29.3443 5.45833 29.6145 5.56808 29.8138 5.76343C30.0131 5.95878 30.125 6.22373 30.125 6.5V23.2396ZM11 5.45833H22.2232V3.375H11V5.45833Z" fill="white"/>
<path fill-rule="evenodd" clip-rule="evenodd" d="M23.75 3.375H11V6.5C11 6.77627 10.8881 7.04122 10.6888 7.23657C10.4895 7.43192 10.2193 7.54167 9.9375 7.54167C9.65571 7.54167 9.38546 7.43192 9.1862 7.23657C8.98694 7.04122 8.875 6.77627 8.875 6.5V3.375H3.5625C2.99892 3.375 2.45841 3.59449 2.0599 3.98519C1.66138 4.3759 1.4375 4.9058 1.4375 5.45833V10.6667C1.4375 11.2192 1.66138 11.7491 2.0599 12.1398C2.45841 12.5305 2.99892 12.75 3.5625 12.75H29.0625C29.6261 12.75 30.1666 12.5305 30.5651 12.1398C30.9636 11.7491 31.1875 11.2192 31.1875 10.6667V5.45833C31.1875 4.9058 30.9636 4.3759 30.5651 3.98519C30.1666 3.59449 29.6261 3.375 29.0625 3.375H25.875V6.5C25.875 6.77627 25.7631 7.04122 25.5638 7.23657C25.3645 7.43192 25.0943 7.54167 24.8125 7.54167C24.5307 7.54167 24.2605 7.43192 24.0612 7.23657C23.8619 7.04122 23.75 6.77627 23.75 6.5V3.375Z" fill="white"/>
<path fill-rule="evenodd" clip-rule="evenodd" d="M32.25 12.75H2.5V10.6667H32.25V12.75Z" fill="white"/>
<path d="M6.75 1.29167C6.75 1.0154 6.86194 0.750448 7.0612 0.555097C7.26046 0.359747 7.53071 0.25 7.8125 0.25C8.09429 0.25 8.36454 0.359747 8.5638 0.555097C8.76306 0.750448 8.875 1.0154 8.875 1.29167V5.45833C8.875 5.7346 8.76306 5.99955 8.5638 6.1949C8.36454 6.39025 8.09429 6.5 7.8125 6.5C7.53071 6.5 7.26046 6.39025 7.0612 6.1949C6.86194 5.99955 6.75 5.7346 6.75 5.45833V1.29167ZM21.625 1.29167C21.625 1.0154 21.7369 0.750448 21.9362 0.555097C22.1355 0.359747 22.4057 0.25 22.6875 0.25C22.9693 0.25 23.2395 0.359747 23.4388 0.555097C23.6381 0.750448 23.75 1.0154 23.75 1.29167V5.45833C23.75 5.7346 23.6381 5.99955 23.4388 6.1949C23.2395 6.39025 22.9693 6.5 22.6875 6.5C22.4057 6.5 22.1355 6.39025 21.9362 6.1949C21.7369 5.99955 21.625 5.7346 21.625 5.45833V1.29167Z" fill="white"/>
</svg>
