<svg width="49" height="36" viewBox="0 0 49 36" fill="none" xmlns="http://www.w3.org/2000/svg">
<path d="M31.85 12.375C31.85 5.54063 24.7221 0 15.925 0C7.12799 0 1.98734e-05 5.54063 1.98734e-05 12.375C1.98734e-05 15.1573 1.19593 17.7159 3.19038 19.7859C1.93552 22.0894 0.186833 23.8162 0.15927 23.8416C-0.00151138 23.9966 -0.045152 24.2265 0.0489433 24.429C0.145489 24.6305 0.352361 24.75 0.586489 24.75C3.52266 24.75 6.00406 23.9681 7.91659 23.0597C10.2747 24.1242 13.0003 24.75 15.925 24.75C24.7221 24.75 31.85 19.2094 31.85 12.375ZM45.9069 31.1977C47.8363 29.1023 49.0001 26.4797 49.0001 23.625C49.0001 16.7906 42.4157 11.25 34.3 11.25C34.2759 11.25 34.2526 11.2529 34.2285 11.253C34.2618 11.6227 34.3 11.9953 34.3 12.375C34.3 19.3092 28.1995 25.1156 20.0518 26.6133C21.6443 31.9992 27.3405 36 34.3 36C36.8794 36 39.3011 35.4369 41.4089 34.4545C43.2732 35.2969 45.639 36 48.4105 36C48.6447 36 48.8515 35.8787 48.948 35.6762C49.0421 35.4738 48.9984 35.2439 48.8377 35.0888C48.8163 35.0648 47.1549 33.4195 45.9069 31.1977Z" fill="white"/>
</svg>
